<?xml version="1.0" standalone="no"?>
<!DOCTYPE svg PUBLIC "-//W3C//DTD SVG 1.1//EN" "http://www.w3.org/Graphics/SVG/1.1/DTD/svg11.dtd" >
<!--
2013-9-30: Created.
-->
<svg>
<metadata>
Created by iconfont
</metadata>
<defs>

<font id="iconfont" horiz-adv-x="1024" >
  <font-face
    font-family="iconfont"
    font-weight="500"
    font-stretch="normal"
    units-per-em="1024"
    ascent="896"
    descent="-128"
  />
    <missing-glyph />
    
    <glyph glyph-name="SEW_xmxx" unicode="&#58926;" d="M678.798222 686.421333H416.312889a66.218667 66.218667 0 0 1-66.104889-66.104889v-26.282666h-46.762667a65.991111 65.991111 0 0 1-65.991111-65.991111v-327.907556a65.991111 65.991111 0 0 1 65.991111-65.991111h262.599111a65.991111 65.991111 0 0 1 65.991112 65.991111v26.396445h46.762666A66.104889 66.104889 0 0 1 744.903111 292.977778V620.316444a66.218667 66.218667 0 0 1-66.104889 66.104889z m-112.753778-92.387555H391.168v26.282666A25.144889 25.144889 0 0 0 416.312889 645.688889h262.485333a25.144889 25.144889 0 0 0 25.144889-25.144889V292.977778a25.144889 25.144889 0 0 0-25.144889-25.031111h-46.762666V528.042667a65.991111 65.991111 0 0 1-65.991112 65.991111z m-287.630222-65.991111a25.031111 25.031111 0 0 0 25.031111 25.031111h262.599111a25.144889 25.144889 0 0 0 25.031112-25.031111v-65.877334h-182.044445a22.755556 22.755556 0 0 1-14.791111-7.623111 17.976889 17.976889 0 0 1-4.437333-14.222222 19.114667 19.114667 0 0 1 4.437333-15.246222 22.755556 22.755556 0 0 1 15.132444-7.623111H591.644444v-66.901334H409.6a22.755556 22.755556 0 0 1-14.791111-7.623111 17.976889 17.976889 0 0 1-4.437333-14.222222 19.114667 19.114667 0 0 1 4.437333-15.246222 22.755556 22.755556 0 0 1 15.132444-7.623111H591.644444v-105.699556a25.144889 25.144889 0 0 0-25.031111-25.031111H303.445333a25.031111 25.031111 0 0 0-25.031111 25.031111z"  horiz-adv-x="1024" />

    
    <glyph glyph-name="SEW_pbzj" unicode="&#58927;" d="M394.467556 456.590222a26.282667 26.282667 0 0 1 13.084444-14.222222 13.539556 13.539556 0 0 1 4.551111-1.820444c0.568889-36.522667 38.912-103.537778 99.783111-103.537778s99.328 68.266667 99.783111 103.310222a19.797333 19.797333 0 0 1 4.437334 1.820444 26.624 26.624 0 0 1 13.198222 14.336 210.716444 210.716444 0 0 1 6.826667 36.864c2.161778 22.755556 0 35.043556-6.144 41.984l-2.389334 2.048v4.209778 14.222222c1.024 34.133333 1.820444 62.691556-33.450666 81.464889l-2.844445 1.137778-1.251555 3.413333c-9.216 22.755556-33.336889 35.612444-71.907556 37.546667h-10.012444c-41.187556-1.251556-70.087111-11.377778-88.632889-31.288889-26.396444-27.875556-25.144889-65.763556-24.007111-99.214222l0.568888-11.377778-2.730666-2.844444c-6.371556-6.940444-8.192-19.342222-5.916445-41.756445a167.139556 167.139556 0 0 1 7.054223-36.295111z m27.761777 57.799111c0 1.365333 2.048 4.437333 4.209778 4.437334v1.137777-1.137777c3.072 0 5.802667-7.509333 7.168-11.377778 0-0.910222 0.568889-1.706667 0.796445-2.161778a2.616889 2.616889 0 0 1 2.275555-1.706667 1.706667 1.706667 0 0 1 1.592889 0.796445v1.137778a366.478222 366.478222 0 0 0 0 50.176 36.522667 36.522667 0 0 0 11.377778 22.072889 24.007111 24.007111 0 0 0 17.635555 7.736888 17.976889 17.976889 0 0 0 8.647111-1.934222l15.473778-7.623111a39.367111 39.367111 0 0 1 36.977778 0l15.246222 7.736889a19.911111 19.911111 0 0 0 8.419556 1.820444 25.941333 25.941333 0 0 0 18.432-7.736888 60.757333 60.757333 0 0 0 12.629333-22.186667 202.979556 202.979556 0 0 0 1.024-49.834667 2.503111 2.503111 0 0 1 0-1.820444l1.137778-0.796445h0.568889a2.503111 2.503111 0 0 1 2.161778 1.706667l0.796444 2.048c1.251556 3.299556 4.096 11.377778 7.281778 11.377778s3.754667-3.072 4.209778-4.437334a63.032889 63.032889 0 0 0 0-21.276444 151.779556 151.779556 0 0 0-4.778667-27.079111 7.623111 7.623111 0 0 0-4.892445-4.437333 12.970667 12.970667 0 0 1-10.467555-10.695112 16.042667 16.042667 0 0 1 0-2.048 23.779556 23.779556 0 0 1 0-2.730666c0.113778-24.462222-29.240889-71.111111-68.152889-71.111111s-68.266667 46.648889-69.176889 71.793777a20.366222 20.366222 0 0 1 0 2.730667 12.401778 12.401778 0 0 0 0 1.934222 12.743111 12.743111 0 0 1-10.581333 10.808889 7.168 7.168 0 0 0-4.778667 4.437334 141.880889 141.880889 0 0 0-4.778667 27.079111 63.601778 63.601778 0 0 0-0.455111 21.162666zM785.635556 137.671111c0 0.682667-5.916444 38.229333-15.587556 77.027556-18.318222 73.841778-34.133333 89.884444-44.600889 95.459555a117.873778 117.873778 0 0 1-34.133333 10.353778A227.555556 227.555556 0 0 0 614.4 347.249778a25.144889 25.144889 0 0 1-13.880889 4.437333 17.180444 17.180444 0 0 1-7.736889-1.706667 14.222222 14.222222 0 0 1-7.395555-14.449777c1.706667-10.695111-11.377778-55.637333-31.061334-100.807111-3.527111 10.467556-8.988444 26.282667-12.060444 34.133333a63.829333 63.829333 0 0 1 13.653333 21.048889 24.348444 24.348444 0 0 1-11.377778 26.737778 22.072889 22.072889 0 0 1-12.743111 4.096 18.090667 18.090667 0 0 1-7.736889-1.592889l-12.060444-4.551111 0.682667-0.910223-1.934223 1.024-10.126222 4.437334a17.863111 17.863111 0 0 1-7.736889 1.706666 20.593778 20.593778 0 0 1-12.856889-4.323555 25.258667 25.258667 0 0 1-11.377777-26.510222 60.643556 60.643556 0 0 1 13.767111-21.048889c-2.958222-7.964444-8.305778-23.779556-11.377778-34.133334-19.797333 44.942222-32.768 89.884444-30.947556 101.376a13.767111 13.767111 0 0 1-8.533333 13.653334 18.318222 18.318222 0 0 1-7.623111 1.706666 24.462222 24.462222 0 0 1-13.994667-4.778666 235.633778 235.633778 0 0 0-77.027555-26.624 116.167111 116.167111 0 0 1-34.133334-10.353778c-10.353778-5.688889-26.282667-21.731556-44.600888-95.345778-9.784889-38.912-15.246222-76.686222-15.246223-77.027555a42.211556 42.211556 0 0 1 10.581334-34.133334 53.475556 53.475556 0 0 1 39.822222-15.132444h444.871111a55.296 55.296 0 0 1 40.846222 15.018666 41.984 41.984 0 0 1 10.581334 34.474667z m-511.089778-10.581333a6.826667 6.826667 0 0 0-1.365334 5.006222V133.688889c4.209778 24.917333 9.443556 50.858667 14.791112 72.931555a342.243556 342.243556 0 0 0 19.683555 60.302223 34.133333 34.133333 0 0 0 8.533333 13.198222 123.904 123.904 0 0 0 23.665778 6.144h0.910222a290.247111 290.247111 0 0 1 66.673778 20.138667 590.506667 590.506667 0 0 1 31.516445-88.291556l35.953777-79.644444 27.534223 83.171555c2.503111 7.850667 6.371556 19.342222 9.329777 27.761778 2.048-5.688889 5.12-14.449778 9.557334-27.875556l27.875555-82.602666 35.612445 79.644444a608.597333 608.597333 0 0 1 26.282666 69.973333c2.161778 6.940444 3.868444 13.084444 5.233778 18.432a292.181333 292.181333 0 0 1 67.584-20.366222 118.556444 118.556444 0 0 0 24.120889-6.485333 45.511111 45.511111 0 0 0 8.760889-13.653333 342.129778 342.129778 0 0 0 19.569778-60.188445c8.874667-35.498667 14.336-69.859556 14.563555-71.338667v-2.389333a6.371556 6.371556 0 0 0-1.137777-4.892444 22.755556 22.755556 0 0 0-15.36-4.209778H289.336889c-10.695111 0-14.222222 3.072-14.791111 3.640889zM475.704889 458.410667a30.72 30.72 0 0 1 30.72 30.606222v2.730667a35.726222 35.726222 0 0 0 11.377778 0v-3.072a30.606222 30.606222 0 1 1 3.982222 15.132444 45.511111 45.511111 0 0 1-9.671111 1.024 43.576889 43.576889 0 0 1-9.443556-0.910222 30.606222 30.606222 0 0 1-56.888889-15.132445 29.923556 29.923556 0 0 1 8.533334-21.617777 30.264889 30.264889 0 0 1 21.390222-8.760889z m14.904889 35.612444v-5.12a15.246222 15.246222 0 0 0-15.246222-15.132444 15.018667 15.018667 0 0 0-10.695112 4.437333 15.473778 15.473778 0 0 0 11.377778 26.055111 15.473778 15.473778 0 0 0 13.425778-8.078222z m42.325333-5.12a8.647111 8.647111 0 0 0 0 1.820445v2.730666l1.365333 2.616889a15.36 15.36 0 0 0 13.312 7.964445 15.132444 15.132444 0 1 0-15.132444-15.132445zM647.168 221.184l2.048 1.024 9.443556 5.461333 12.515555-6.485333-0.341333 2.275556-2.389334 10.695111 10.126223 9.898666-2.275556 0.341334-10.922667 1.024-6.144 12.743111-1.024-2.161778-4.437333-9.898667-13.994667-2.048 1.706667-1.706666 8.078222-7.168-2.389333-13.994667zM684.487111 209.578667a39.253333 39.253333 0 1 1-64.625778 29.809777 38.456889 38.456889 0 0 1 10.695111-26.624L603.022222 135.964444l54.044445 30.606223 53.930666-30.606223z m-25.258667 53.248a23.438222 23.438222 0 1 0-23.552-23.438223 23.552 23.552 0 0 0 23.552 23.438223z m0-62.691556A38.684444 38.684444 0 0 1 671.288889 201.955556l12.856889-35.953778-27.534222 15.587555-27.420445-15.132444 13.425778 37.432889a40.391111 40.391111 0 0 1 16.611555-3.754667z"  horiz-adv-x="1024" />

    
    <glyph glyph-name="SEW_dsjc" unicode="&#58916;" d="M512 174.648889A243.484444 243.484444 0 1 0 755.484444 418.133333 243.712 243.712 0 0 0 512 174.648889z m0 450.56A207.075556 207.075556 0 1 1 719.075556 418.133333 207.189333 207.189333 0 0 1 512 625.208889zM512 176.924444A241.208889 241.208889 0 1 0 753.208889 418.133333 241.436444 241.436444 0 0 0 512 176.924444z m0 450.56A209.351111 209.351111 0 1 1 721.351111 418.133333 209.578667 209.578667 0 0 1 512 627.484444zM512 176.924444A241.208889 241.208889 0 1 0 753.208889 418.133333 241.436444 241.436444 0 0 0 512 176.924444z m0 450.56A209.351111 209.351111 0 1 1 721.351111 418.133333 209.578667 209.578667 0 0 1 512 627.484444zM512 179.2a238.933333 238.933333 0 1 0 238.933333 238.933333 238.933333 238.933333 0 0 0-238.933333-238.933333z m0 450.56A211.626667 211.626667 0 1 1 723.626667 418.133333 211.854222 211.854222 0 0 1 512 629.76z m0 0M512 304.355556a113.777778 113.777778 0 1 0 113.777778 113.777777 113.777778 113.777778 0 0 0-113.777778-113.777777z m0 191.146666a77.368889 77.368889 0 1 1 77.368889-77.368889 77.482667 77.482667 0 0 1-77.368889 77.368889zM512 306.631111a111.502222 111.502222 0 1 0 111.502222 111.502222 111.729778 111.729778 0 0 0-111.502222-111.502222zM512 497.777778a79.644444 79.644444 0 1 1 79.644444-79.644445 79.644444 79.644444 0 0 1-79.644444 79.644445zM512 306.631111a111.502222 111.502222 0 1 0 111.502222 111.502222 111.729778 111.729778 0 0 0-111.502222-111.502222zM512 497.777778a79.644444 79.644444 0 1 1 79.644444-79.644445 79.644444 79.644444 0 0 1-79.644444 79.644445zM512 308.906667a109.226667 109.226667 0 1 0 109.226667 109.226666 109.454222 109.454222 0 0 0-109.226667-109.226666z m0 191.146666a81.92 81.92 0 1 1 81.92-81.92 82.033778 82.033778 0 0 1-81.92 81.92z m0 0M512 106.382222c-134.599111 0-277.617778 35.043556-277.617778 100.124445 0 34.133333 36.067556 61.44 104.220445 79.644444a16.952889 16.952889 0 0 0 4.892444 0.682667 18.204444 18.204444 0 0 0 17.521778-22.755556 18.090667 18.090667 0 0 0-12.970667-12.856889c-61.098667-16.497778-77.255111-36.522667-77.255111-44.714666 0-25.372444 96.256-63.715556 241.208889-63.715556s241.208889 38.343111 241.208889 63.715556c0 8.192-16.156444 28.216889-77.255111 44.714666a18.204444 18.204444 0 0 0 5.006222 35.726223 19.683556 19.683556 0 0 0 4.323556 0c68.266667-18.432 104.334222-46.08 104.334222-79.644445 0-65.877333-143.018667-100.920889-277.617778-100.920889z m-34.133333 279.552a65.991111 65.991111 0 1 0 65.991111 65.991111 65.991111 65.991111 0 0 0-65.991111-65.991111z m0 95.573334a29.582222 29.582222 0 1 1 29.582222-29.582223 29.696 29.696 0 0 1-29.582222 29.582223zM512 108.657778c-133.461333 0-275.342222 34.133333-275.342222 97.848889 0 32.654222 35.498667 59.505778 102.4 77.596444a13.767111 13.767111 0 0 0 4.323555 0.682667 16.042667 16.042667 0 0 0 15.36-20.138667 16.042667 16.042667 0 0 0-11.377777-11.377778C285.127111 236.088889 268.515556 215.950222 268.515556 206.506667c0-26.851556 94.890667-65.991111 243.484444-65.991111s243.484444 38.684444 243.484444 65.991111c0 9.443556-16.611556 30.037333-78.961777 46.876444a15.928889 15.928889 0 0 0 4.437333 31.288889 15.132444 15.132444 0 0 0 3.868444-0.568889c67.015111-18.090667 102.4-44.942222 102.4-77.596444 0.113778-63.601778-141.767111-97.848889-275.228444-97.848889z m-34.133333 279.552a63.715556 63.715556 0 1 0 63.715555 63.715555 63.715556 63.715556 0 0 0-63.715555-63.715555z m0 95.573333a31.857778 31.857778 0 1 1 31.857777-31.857778 31.971556 31.971556 0 0 1-31.857777 31.857778zM512 108.657778c-133.461333 0-275.342222 34.133333-275.342222 97.848889 0 32.654222 35.498667 59.505778 102.4 77.596444a13.767111 13.767111 0 0 0 4.323555 0.682667 16.042667 16.042667 0 0 0 15.36-20.138667 16.042667 16.042667 0 0 0-11.377777-11.377778C285.127111 236.088889 268.515556 215.950222 268.515556 206.506667c0-26.851556 94.890667-65.991111 243.484444-65.991111s243.484444 38.684444 243.484444 65.991111c0 9.443556-16.611556 30.037333-78.961777 46.876444a15.928889 15.928889 0 0 0 4.437333 31.288889 15.132444 15.132444 0 0 0 3.868444-0.568889c67.015111-18.090667 102.4-44.942222 102.4-77.596444 0.113778-63.601778-141.767111-97.848889-275.228444-97.848889z m-34.133333 279.552a63.715556 63.715556 0 1 0 63.715555 63.715555 63.715556 63.715556 0 0 0-63.715555-63.715555z m0 95.573333a31.857778 31.857778 0 1 1 31.857777-31.857778 31.971556 31.971556 0 0 1-31.857777 31.857778zM477.866667 390.485333a61.44 61.44 0 1 0 61.44 61.44 61.44 61.44 0 0 0-61.44-61.44zM477.866667 486.4a34.133333 34.133333 0 1 1 34.133333-34.133333 34.133333 34.133333 0 0 1-34.133333 34.133333z m34.133333-375.466667c-132.323556 0-273.066667 33.450667-273.066667 95.573334 0 31.516444 34.816 57.571556 100.807111 75.434666a13.653333 13.653333 0 0 0 16.952889-16.725333 13.994667 13.994667 0 0 0-9.784889-9.671111c-59.505778-16.042667-80.668444-36.408889-80.668444-49.038222 0-28.558222 93.525333-68.266667 245.76-68.266667s245.76 39.708444 245.76 68.266667c0 12.629333-21.162667 32.995556-80.668444 49.038222a13.653333 13.653333 0 0 0 7.168 26.055111c65.991111-17.521778 100.807111-43.576889 100.807111-75.093333 0-62.122667-140.743111-95.573333-273.066667-95.573334z m0 0"  horiz-adv-x="1024" />

    
    <glyph glyph-name="SEW_qycg" unicode="&#58917;" d="M410.624 154.624a40.732444 40.732444 0 1 1 40.732444 40.618667 40.618667 40.618667 0 0 1-40.732444-40.618667z m0 0M675.498667 154.624a40.618667 40.618667 0 1 1 40.618666 40.618667 40.618667 40.618667 0 0 1-40.618666-40.618667z m0 0M830.577778 588.8H371.143111L364.088889 627.256889v0.568889a37.888 37.888 0 0 1-16.042667 23.779555 66.901333 66.901333 0 0 1-39.367111 9.557334 20.366222 20.366222 0 0 1 0-40.618667 37.205333 37.205333 0 0 0 15.36-2.161778l66.446222-377.173333a27.989333 27.989333 0 0 1 27.875556-25.713778h337.578667a20.366222 20.366222 0 1 1 0 40.618667H429.738667l-5.12 28.444444h345.088A26.396444 26.396444 0 0 1 796.444444 306.403556l60.871112 252.586666a20.935111 20.935111 0 0 1 0.568888 4.664889A26.168889 26.168889 0 0 1 830.577778 588.8z m-71.793778-263.509333h-341.333333l-39.253334 223.004444h434.289778z m0 0M613.717333 513.365333c-1.365333-1.706667-2.616889-3.640889-3.982222-5.347555a186.709333 186.709333 0 0 1 77.482667-48.128A58.140444 58.140444 0 0 1 673.109333 440.888889a214.243556 214.243556 0 0 0-76.344889 52.337778 237.340444 237.340444 0 0 0-74.865777-52.337778 83.512889 83.512889 0 0 1-15.246223 19.000889 188.871111 188.871111 0 0 1 86.926223 63.715555z m-3.982222-142.222222h67.356445v-20.138667H517.12v20.138667h20.366222v65.649778h22.186667v-65.649778h26.396444v96.483556h23.665778v-38.798223H659.911111v-20.138666h-50.176z"  horiz-adv-x="1024" />

    
    <glyph glyph-name="SEW_sjjc" unicode="&#58918;" d="M724.764444 186.140444H365.112889a17.294222 17.294222 0 0 1 0-34.133333h359.879111a17.294222 17.294222 0 0 1 0 34.133333zM734.321778 616.334222H355.555556a88.177778 88.177778 0 0 1-87.950223-87.950222V315.733333a88.177778 88.177778 0 0 1 87.950223-88.064h378.766222A88.177778 88.177778 0 0 1 822.385778 315.733333V528.384a88.064 88.064 0 0 1-88.064 87.950222z m-432.355556-87.950222a53.589333 53.589333 0 0 0 53.361778 53.475556h379.335111A53.020444 53.020444 0 0 0 772.323556 566.044444a53.816889 53.816889 0 0 0 15.815111-37.888V315.733333a53.361778 53.361778 0 0 0-53.816889-53.703111H355.555556A53.248 53.248 0 0 0 302.193778 315.733333zM724.764444 188.416H364.999111a19.569778 19.569778 0 0 1 0-39.025778h360.220445a19.456 19.456 0 0 1 18.318222 19.456 19.683556 19.683556 0 0 1-18.773334 19.569778zM734.321778 618.609778H355.555556a91.022222 91.022222 0 0 1-90.225778-90.225778V315.733333a91.022222 91.022222 0 0 1 90.225778-91.022222h378.766222a91.022222 91.022222 0 0 1 90.339555 91.022222V528.384a90.339556 90.339556 0 0 1-90.339555 90.225778zM785.863111 315.733333a50.972444 50.972444 0 0 0-15.018667-36.408889 51.541333 51.541333 0 0 0-36.522666-15.018666H355.555556A51.086222 51.086222 0 0 0 304.469333 315.733333V528.384a51.313778 51.313778 0 0 0 51.086223 51.2h379.107555a51.313778 51.313778 0 0 0 51.2-51.2zM723.854222 540.216889a20.024889 20.024889 0 0 1-12.970666-4.892445L571.278222 395.377778l-57.457778 74.410666a30.947556 30.947556 0 0 1-22.186666 11.377778H489.244444a30.378667 30.378667 0 0 1-21.390222-8.647111L351.573333 361.244444a19.569778 19.569778 0 0 1 13.767111-34.133333 19.569778 19.569778 0 0 1 13.653334 5.461333l109.568 106.154667L546.133333 364.544a30.947556 30.947556 0 0 1 22.755556-11.377778h2.048a30.72 30.72 0 0 1 21.731555 9.102222L739.555556 508.131556a19.569778 19.569778 0 0 1-15.132445 32.085333zM365.340444 329.614222a17.180444 17.180444 0 0 1 12.060445 4.892445L489.244444 442.368l59.164445-76.458667a27.989333 27.989333 0 0 1 20.707555-11.377777h1.934223a28.330667 28.330667 0 0 1 20.138666 8.419555L737.166222 509.155556a17.294222 17.294222 0 0 1-24.576 24.120888L571.050667 392.419556 512 468.764444a28.330667 28.330667 0 0 1-20.48 11.377778H489.244444a27.989333 27.989333 0 0 1-19.797333-8.078222L352.711111 359.310222a17.294222 17.294222 0 0 1 12.174222-29.696z"  horiz-adv-x="1024" />

    
    <glyph glyph-name="SEW_xycx" unicode="&#58921;" d="M613.148444 103.765333a20.252444 20.252444 0 0 0-20.138666 20.138667v8.419556a20.138667 20.138667 0 0 0 40.277333 0v-8.419556a19.683556 19.683556 0 0 0-5.916444-14.222222 20.138667 20.138667 0 0 0-14.222223-5.916445z m-346.794666 0a20.252444 20.252444 0 0 0-20.138667 20.138667V485.148444A92.501333 92.501333 0 0 0 338.602667 577.422222h202.296889a92.501333 92.501333 0 0 0 92.387555-92.387555v-138.353778a20.138667 20.138667 0 1 0-40.277333 0V485.148444a52.110222 52.110222 0 0 1-52.110222 52.110223H338.602667a52.110222 52.110222 0 0 1-52.110223-52.110223v-361.244444a20.138667 20.138667 0 0 0-5.916444-14.222222 19.683556 19.683556 0 0 0-14.222222-5.916445zM613.148444 109.454222a14.336 14.336 0 0 0-14.449777 14.449778v8.419556a14.449778 14.449778 0 0 0 28.899555 0v-8.419556a14.336 14.336 0 0 0-14.449778-14.449778z m-346.794666 0a14.336 14.336 0 0 0-14.449778 14.449778V485.148444a86.812444 86.812444 0 0 0 86.698667 86.698667h202.296889a86.812444 86.812444 0 0 0 86.698666-86.698667v-138.467555a14.449778 14.449778 0 1 0-28.899555 0V485.148444A57.912889 57.912889 0 0 1 540.899556 543.288889H338.602667a57.912889 57.912889 0 0 1-57.799111-57.799111v-361.585778a14.904889 14.904889 0 0 0-4.209778-10.24 14.563556 14.563556 0 0 0-10.24-4.209778z m0 0M237.454222 103.765333a20.138667 20.138667 0 0 0 0 40.277334H656.497778a20.138667 20.138667 0 0 0 0-40.277334z m520.192 171.576889a19.683556 19.683556 0 0 0-14.222222 6.257778 20.138667 20.138667 0 0 0-5.916444 14.222222V586.296889a52.110222 52.110222 0 0 1-52.110223 52.110222H533.617778a52.224 52.224 0 0 1-52.110222-52.110222v-28.899556a20.138667 20.138667 0 0 0-40.277334 0v28.899556a92.501333 92.501333 0 0 0 92.387556 92.387555h151.779555a92.501333 92.501333 0 0 0 92.387556-92.387555v-290.816a19.683556 19.683556 0 0 0-5.916445-13.880889 20.138667 20.138667 0 0 0-14.222222-6.257778zM757.646222 281.031111a14.336 14.336 0 0 0-10.24 4.209778 14.904889 14.904889 0 0 0-4.209778 10.24V586.296889a57.912889 57.912889 0 0 1-57.799111 57.799111H533.617778a57.912889 57.912889 0 0 1-57.799111-57.799111v-28.899556a14.449778 14.449778 0 0 0-28.899556 0v28.899556a86.812444 86.812444 0 0 0 86.698667 86.698667h151.779555a86.812444 86.812444 0 0 0 86.698667-86.698667v-290.816a14.336 14.336 0 0 0-14.449778-14.449778zM656.497778 109.454222H237.454222a14.449778 14.449778 0 0 0 0 28.899556H656.497778a14.449778 14.449778 0 0 0 0-28.899556z m0 0M656.497778 103.765333A135.736889 135.736889 0 1 0 792.234667 239.502222 135.850667 135.850667 0 0 0 656.497778 103.765333z m0 231.196445a95.459556 95.459556 0 1 1 95.459555-95.459556 95.459556 95.459556 0 0 1-95.459555 95.459556zM656.497778 109.454222A130.048 130.048 0 1 0 786.545778 239.502222 130.275556 130.275556 0 0 0 656.497778 109.454222z m0 231.196445a101.148444 101.148444 0 1 1 101.148444-101.148445 101.262222 101.262222 0 0 1-101.148444 101.148445z m0 0M786.545778 89.315556a19.683556 19.683556 0 0 0-14.222222 5.916444l-46.990223 46.876444a20.138667 20.138667 0 0 0 8.988445 34.133334 19.797333 19.797333 0 0 0 5.12 0.682666 20.252444 20.252444 0 0 0 14.449778-6.144l46.876444-46.876444a20.024889 20.024889 0 0 0-14.222222-34.133333zM338.602667 349.866667a20.138667 20.138667 0 0 0-14.222223 5.916444 19.683556 19.683556 0 0 0-5.802666 13.767111v86.698667a19.683556 19.683556 0 0 0 5.916444 14.222222 20.138667 20.138667 0 0 0 14.222222 5.916445h144.497778a20.252444 20.252444 0 0 0 20.138667-20.138667v-86.698667A20.252444 20.252444 0 0 0 483.100444 349.866667z m124.359111 39.822222v46.421333h-104.220445v-46.421333zM786.545778 95.004444a14.336 14.336 0 0 0-10.24 4.209778l-46.876445 46.990222a14.449778 14.449778 0 1 0 20.366223 20.366223l46.648888-46.876445a14.563556 14.563556 0 0 0 3.072-15.815111 14.336 14.336 0 0 0-13.312-8.874667zM483.100444 355.100444h-144.497777a14.336 14.336 0 0 0-14.449778 14.449778v86.698667a14.336 14.336 0 0 0 14.449778 14.449778h144.497777a14.336 14.336 0 0 0 14.449778-14.449778v-86.698667a14.336 14.336 0 0 0-14.449778-14.449778zM352.711111 384h115.939556v57.799111H352.711111z m0 0"  horiz-adv-x="1024" />

    
    <glyph glyph-name="SEW_zbyj" unicode="&#58922;" d="M522.467556 423.253333l231.424 231.424a20.366222 20.366222 0 1 0 28.785777-28.672L551.253333 394.581333a41.528889 41.528889 0 0 0 1.365334-10.581333A40.618667 40.618667 0 1 0 512 424.618667a39.367111 39.367111 0 0 0 10.467556-1.365334z m112.071111 170.666667c-38.570667 25.6-72.817778 34.133333-122.538667 34.133333a243.939556 243.939556 0 1 1 207.075556-115.370666 22.755556 22.755556 0 0 0 8.760888 22.755555 19.456 19.456 0 0 0 24.120889-2.616889A251.448889 251.448889 0 0 0 796.444444 384a284.444444 284.444444 0 1 0-284.444444 284.444444c60.984889 0 98.417778-7.964444 144.725333-40.618666a15.928889 15.928889 0 0 0 3.982223-26.282667 26.510222 26.510222 0 0 0-26.168889-7.395555z m-70.542223-89.315556a130.161778 130.161778 0 0 1-51.996444 10.808889A131.754667 131.754667 0 1 1 644.096 384a133.12 133.12 0 0 1-8.192 45.511111c-2.503111 6.712889-3.754667 22.755556 7.964444 27.761778a20.366222 20.366222 0 0 0 28.785778-10.467556c11.377778-22.755556 12.060444-35.612444 12.060445-63.146666A172.373333 172.373333 0 1 0 512 556.032a134.940444 134.940444 0 0 0 72.704-17.066667 18.090667 18.090667 0 0 0 4.778667-29.809777 21.617778 21.617778 0 0 0-25.486223-4.892445z m0 0"  horiz-adv-x="1024" />

    
    <glyph glyph-name="SEW_zfcg" unicode="&#58923;" d="M319.601778 154.624a40.732444 40.732444 0 1 1 40.732444 40.618667 40.618667 40.618667 0 0 1-40.732444-40.618667z m0 0M584.476444 154.624a40.618667 40.618667 0 1 1 40.618667 40.618667 40.618667 40.618667 0 0 1-40.618667-40.618667z m0 0M739.555556 588.8H280.120889L273.066667 627.256889v0.568889a37.888 37.888 0 0 1-16.042667 23.779555 66.901333 66.901333 0 0 1-39.367111 9.557334 20.366222 20.366222 0 0 1 0-40.618667 37.205333 37.205333 0 0 0 15.36-2.161778l66.446222-377.173333a27.989333 27.989333 0 0 1 27.875556-25.713778h337.578666a20.366222 20.366222 0 1 1 0 40.618667H338.716444l-5.12 28.444444h345.088A26.396444 26.396444 0 0 1 705.422222 306.403556l60.871111 252.586666a20.935111 20.935111 0 0 1 0.568889 4.664889A26.168889 26.168889 0 0 1 739.555556 588.8z m-71.793778-263.509333h-341.333334l-39.253333 223.004444h434.289778z m0 0M588.344889 466.488889A213.105778 213.105778 0 0 0 566.954667 395.377778a88.974222 88.974222 0 0 1 34.133333-28.558222 83.171556 83.171556 0 0 1-15.018667-18.887112 99.669333 99.669333 0 0 0-33.109333 28.216889 116.394667 116.394667 0 0 0-37.660444-28.672 92.501333 92.501333 0 0 1-12.401778 19.342223A93.411556 93.411556 0 0 1 541.013333 395.377778a208.896 208.896 0 0 0-15.132444 40.732444 92.728889 92.728889 0 0 0-6.485333-9.102222 105.813333 105.813333 0 0 1-10.126223 10.012444v-1.706666H488.106667v-37.888l26.168889 5.575111 1.820444-20.138667c-30.378667-7.054222-63.032889-14.108444-86.812444-19.456l-3.868445 22.755556 9.671111 1.592889v78.620444H455.111111v-75.320889l11.377778 2.275556v95.232h-36.750222V509.155556h84.650666v-21.048889H488.106667v-32.426667h21.162666v-4.551111a184.433778 184.433778 0 0 1 22.755556 68.949333l21.845333-3.299555c-1.706667-10.353778-4.096-20.593778-6.712889-30.378667h52.565334v-20.366222z m-48.583111-2.844445a216.177778 216.177778 0 0 1 13.994666-46.535111 176.810667 176.810667 0 0 1 12.401778 48.924445h-25.486222z"  horiz-adv-x="1024" />

    
    <glyph glyph-name="SEW_zbyg" unicode="&#58924;" d="M473.884444 334.051556c2.275556 6.826667 4.892444 16.497778 7.168 26.168888h-12.629333v-69.290666c0-11.377778-1.820444-18.204444-9.784889-21.959111a74.752 74.752 0 0 0-31.971555-4.437334 83.512889 83.512889 0 0 1-7.623111 23.893334h21.617777c2.958222 0 3.754667 0.796444 3.754667 3.185777v68.266667h-31.175111v22.300445H455.111111c-11.377778 7.054222-23.324444 15.246222-33.450667 21.276444l12.743112 16.384 16.839111-9.898667A186.709333 186.709333 0 0 1 467.057778 429.511111h-48.810667v21.617778h64.284445l4.096 1.251555 14.904888-10.695111a216.860444 216.860444 0 0 0-32.654222-41.870222c6.030222-3.754667 11.377778-7.281778 15.246222-10.24l-5.347555-7.054222h9.784889l3.299555 0.796444 15.132445-3.527111c-4.437333-17.408-10.126222-37.091556-14.677334-49.379555z m92.728889 9.557333c0-27.192889-8.419556-58.709333-59.847111-77.937778a79.644444 79.644444 0 0 1-15.473778 17.066667c45.511111 15.36 52.110222 41.870222 52.110223 61.326222v38.115556h22.755555z m-25.941333 70.997333c1.024 4.778667 1.820444 10.012444 2.503111 15.018667h-40.391111v21.959111h107.292444V429.511111h-40.391111c-1.592889-5.233778-3.299556-10.24-5.006222-15.018667h37.319111v-99.441777h-24.348444v77.368889h-45.511111v-78.051556h-22.755556v100.238222z m34.133333-103.196444a435.768889 435.768889 0 0 0 36.750223-31.402667l-17.294223-16.725333a387.527111 387.527111 0 0 1-35.612444 33.450666zM288.654222 124.245333a18.090667 18.090667 0 0 0-17.863111 18.318223V624.867556a18.659556 18.659556 0 0 0 17.863111 18.887111h352.711111L753.208889 531.911111v-389.347555a18.090667 18.090667 0 0 0-17.863111-18.318223z m23.552 41.415111h399.928889V491.52h-110.705778V602.453333H312.092444z m396.288 367.274667l-65.763555 65.763556v-65.763556zM750.933333 142.563556a15.815111 15.815111 0 0 0-15.587555-16.042667H288.654222A15.815111 15.815111 0 0 0 273.066667 142.563556V624.867556a16.270222 16.270222 0 0 0 15.587555 16.611555h352.028445L750.933333 530.887111zM603.704889 604.728889H309.816889v-441.344h404.593778v329.955555h-110.705778z m36.750222 0v-73.500445h73.500445z m0 0"  horiz-adv-x="1024" />

    
    <glyph glyph-name="SEW_zbgg" unicode="&#58925;" d="M323.128889 518.940444h121.173333a19.911111 19.911111 0 0 1 0 39.822223H323.128889a19.911111 19.911111 0 0 1 0-39.822223zM323.128889 384h26.965333a20.024889 20.024889 0 0 1 0 39.936H323.128889a20.024889 20.024889 0 0 1 0-39.936zM787.228444 321.649778a31.857778 31.857778 0 0 0 0 7.168V332.572444a182.840889 182.840889 0 0 1-2.616888 18.659556l-0.682667 2.616889c-1.137778 4.892444-2.503111 10.353778-4.664889 16.952889 0 1.479111-1.024 3.072-1.592889 4.664889a20.024889 20.024889 0 0 0-1.137778 3.413333v0.682667A22.755556 22.755556 0 0 0 773.688889 384a28.216889 28.216889 0 0 1-1.706667 4.437333 108.657778 108.657778 0 0 1-6.826666 15.132445l-1.251556 3.185778a19.797333 19.797333 0 0 1-17.863111 11.377777 20.366222 20.366222 0 0 1-8.988445-2.048 19.456 19.456 0 0 1-10.012444-11.377777 19.797333 19.797333 0 0 1 1.137778-16.497778 68.266667 68.266667 0 0 0 6.030222-13.198222c0-1.592889 1.024-3.185778 1.592889-4.778667a16.156444 16.156444 0 0 0 1.137778-3.299556v-1.365333A18.887111 18.887111 0 0 0 739.555556 361.244444l0.910222-2.730666a71.566222 71.566222 0 0 0 3.754666-15.473778 105.358222 105.358222 0 0 0 2.503112-14.563556 50.517333 50.517333 0 0 1 0.682666-10.012444v-8.192a127.203556 127.203556 0 0 0-1.137778-17.294222 122.652444 122.652444 0 0 0-2.503111-16.156445c-1.365333-5.916444-2.616889-11.377778-3.868444-15.473777s-3.982222-11.377778-6.144-16.839112a62.464 62.464 0 0 0-4.323556-10.581333l-2.161777-4.437333-0.682667-0.682667v-0.682667c-1.934222-3.072-3.754667-6.257778-5.802667-8.988444l-1.365333-1.820444a31.744 31.744 0 0 1-3.413333-5.006223l-1.479112-1.820444a30.037333 30.037333 0 0 1-3.868444-5.575111c-2.503111-2.958222-6.144-7.281778-9.329778-10.353778s-3.185778-3.072-4.778666-4.551111l-4.892445-4.437333-1.934222-1.479112a136.533333 136.533333 0 0 0-12.288-8.988444l-2.389333-1.479111-3.299556-2.048a45.511111 45.511111 0 0 0-7.395556-4.323556 102.4 102.4 0 0 0-10.695111-4.892444l-2.503111-1.137778-4.778666-1.592889-3.299556-1.137778h-0.682667A21.390222 21.390222 0 0 0 637.155556 156.444444l-2.730667-0.796444a65.536 65.536 0 0 0-15.473778-3.868444 105.358222 105.358222 0 0 0-14.563555-2.503112 58.140444 58.140444 0 0 1-10.695112-0.682666h-15.36a43.008 43.008 0 0 0-9.329777 0.682666 117.077333 117.077333 0 0 0-16.156445 2.503112c-5.916444 1.365333-11.377778 2.616889-15.587555 3.868444s-11.377778 3.982222-16.839111 6.144a91.022222 91.022222 0 0 0-9.898667 3.868444l-2.730667 2.161778-3.527111 1.706667c-3.185778 1.934222-6.371556 3.868444-9.216 5.916444l-6.485333 4.551111-2.161778 1.706667a26.737778 26.737778 0 0 1-5.575111 3.868445c-2.958222 2.503111-7.281778 6.144-10.581333 9.443555s-7.054222 7.054222-9.102223 9.671111l-10.24 14.904889a97.28 97.28 0 0 0-7.168 12.060445 65.308444 65.308444 0 0 0-6.030222 13.198222c0 1.592889-1.024 3.185778-1.592889 4.778666a28.103111 28.103111 0 0 0-1.137778 3.299556v1.251556A21.390222 21.390222 0 0 0 432.355556 258.844444c0 0.910222 0 1.820444-0.796445 2.730667a71.68 71.68 0 0 0-3.868444 15.473778 124.359111 124.359111 0 0 0-2.616889 16.611555 68.949333 68.949333 0 0 0-1.251556 16.156445 121.742222 121.742222 0 0 0 0.682667 16.156444 113.777778 113.777778 0 0 0 2.503111 15.928889l1.024 4.209778c1.024 3.982222 1.934222 7.964444 2.844444 11.377778v0.910222l0.682667 1.592889v0.910222a68.266667 68.266667 0 0 0 3.072 8.760889 13.539556 13.539556 0 0 0 0.910222 2.275556l1.137778 3.072a42.325333 42.325333 0 0 0 4.323556 9.898666l1.365333 2.730667a24.234667 24.234667 0 0 0 1.820444 2.844444 30.378667 30.378667 0 0 1 2.503112 3.868445l2.275555 3.754666 1.706667 2.958223 0.682666 1.024 1.137778 1.251555v1.024c1.024 1.820444 2.389333 3.640889 3.413334 5.12a21.617778 21.617778 0 0 1 2.730666 3.640889 11.377778 11.377778 0 0 0 1.137778 1.592889 133.575111 133.575111 0 0 0 9.671111 11.377778c3.982222 3.982222 7.168 7.168 10.24 9.671111l0.796445 0.682667c3.868444 3.299556 8.419556 6.599111 13.084444 9.898666a91.022222 91.022222 0 0 0 11.946667 7.509334l3.185777 1.592888a56.888889 56.888889 0 0 0 11.377778 4.892445l4.096 1.592889c3.754667 1.365333 7.509333 2.844444 13.084445 4.551111a46.876444 46.876444 0 0 0 9.216 2.503111l5.233777 1.251556a121.514667 121.514667 0 0 0 15.246223 2.503111h18.887111a121.742222 121.742222 0 0 0 16.156444-0.682667 119.808 119.808 0 0 0 16.156445-2.503111c5.916444-1.365333 11.377778-2.730667 15.473777-3.868445s7.281778-2.616889 10.581334-3.982222l5.575111-2.161778a65.763556 65.763556 0 0 0 7.964444-3.299555l3.640889-1.592889a20.935111 20.935111 0 0 1 11.946667-4.209778 20.024889 20.024889 0 0 1 20.024889 20.024889v102.4a87.381333 87.381333 0 0 1-87.267556 87.267556H323.128889a87.381333 87.381333 0 0 1-87.267556-87.267556v-377.400889a87.381333 87.381333 0 0 1 87.267556-87.267555h262.599111a50.517333 50.517333 0 0 1 10.012444 0.682666 61.781333 61.781333 0 0 1 11.377778 0.682667h1.820445a180.906667 180.906667 0 0 1 18.545777 2.616889l2.616889 0.682667c4.892444 1.137778 10.353778 2.503111 16.952889 4.664888l4.664889 1.592889a20.024889 20.024889 0 0 0 3.413333 1.137778h0.682667A22.755556 22.755556 0 0 0 659.911111 122.311111a28.216889 28.216889 0 0 1 4.437333 1.706667 116.622222 116.622222 0 0 1 15.246223 6.826666l3.072 1.592889c4.209778 2.048 7.736889 4.209778 11.377777 6.485334l1.365334 0.910222a15.36 15.36 0 0 1 2.958222 2.048l4.551111 3.185778a98.986667 98.986667 0 0 1 12.288 9.671111L716.8 156.444444a157.354667 157.354667 0 0 1 12.515556 11.377778c4.892444 4.778667 9.102222 9.671111 12.856888 14.108445l4.892445 6.940444 2.730667 3.413333c1.137778 1.251556 2.161778 2.503111 3.527111 4.323556s4.209778 6.712889 6.030222 9.784889l2.958222 3.527111h0.910222l2.958223 7.168a48.924444 48.924444 0 0 0 2.730666 5.461333c1.365333 2.844444 2.844444 5.688889 4.096 8.988445 2.048 5.461333 4.096 11.377778 6.144 17.066666a156.330667 156.330667 0 0 1 5.916445 20.366223 166.912 166.912 0 0 1 2.616889 18.204444v1.934222c0.682667 7.054222 0.682667 13.994667 0.682666 20.821334a53.930667 53.930667 0 0 1-1.137778 11.719111z m-512 250.311111a47.445333 47.445333 0 0 0 47.445334 47.445333h283.306666a47.445333 47.445333 0 0 0 47.331556-47.445333v-72.817778a49.038222 49.038222 0 0 1-6.940444 2.161778 156.330667 156.330667 0 0 1-20.593778 6.144c-6.257778 1.251556-12.515556 2.048-17.976889 2.616889h-2.161778c-7.054222 0.682667-13.994667 0.682667-20.138667 0.682666s-13.767111 0-20.935111-0.682666h-2.048c-5.461333 0-11.377778-1.365333-17.976889-2.616889a87.04 87.04 0 0 1-19.683555-5.575111l-8.874667-3.072-8.647111-2.958222a116.622222 116.622222 0 0 1-15.246222-6.826667l-3.299556-1.706667a167.936 167.936 0 0 1-17.521777-11.377778l-14.904889-11.377777A130.844444 130.844444 0 0 1 441.799111 452.266667c-4.778667-4.778667-8.874667-9.443556-12.856889-14.108445a25.713778 25.713778 0 0 1-3.299555-4.323555v-0.910223c-1.479111-1.820444-2.730667-3.527111-3.982223-5.347555a60.188444 60.188444 0 0 0-3.640888-4.892445 55.068444 55.068444 0 0 1-4.892445-8.419555l-2.275555-3.754667-1.479112-2.616889c-0.682667-0.682667-0.910222-1.365333-0.796444-1.365333l-0.910222-0.910222-1.820445-4.437334c-0.796444-1.934222-1.706667-3.640889-2.616889-5.461333a70.314667 70.314667 0 0 1-3.982222-8.419555l-2.389333-4.892445c0-1.251556-0.910222-2.616889-1.479111-3.982222a76.572444 76.572444 0 0 1-3.185778-9.443556A178.858667 178.858667 0 0 1 386.844444 349.866667c-1.251556-6.144-1.934222-12.288-2.616888-17.749334v-2.389333c-0.682667-7.054222-0.682667-13.994667-0.682667-20.138667s0-13.084444 0.682667-20.935111v-2.161778c0.682667-5.461333 1.365333-11.377778 2.616888-18.204444l0.910223-3.640889a153.713778 153.713778 0 0 1 4.551111-15.928889 43.690667 43.690667 0 0 1 1.479111-4.664889 20.024889 20.024889 0 0 0 1.137778-3.413333v-1.251556a32.199111 32.199111 0 0 0 1.251555-3.527111 47.217778 47.217778 0 0 1 1.706667-4.437333 122.197333 122.197333 0 0 1 6.826667-15.132444l1.706666-3.413334a156.444444 156.444444 0 0 1 11.377778-17.521778l10.126222-14.222222a128.910222 128.910222 0 0 1 8.874667-10.353778l4.551111-5.12c5.006222-5.006222 9.784889-9.102222 14.108444-12.856888l7.623112-5.347556H323.356444a49.948444 49.948444 0 0 0-47.672888 48.810667zM643.185778 408.576a18.545778 18.545778 0 0 1-10.353778 11.377778 95.800889 95.800889 0 0 1-22.755556 7.281778 141.767111 141.767111 0 0 1-48.014222 0 102.4 102.4 0 0 1-23.779555-7.964445 115.484444 115.484444 0 0 1-12.743111-6.940444l-6.257778-3.527111a89.429333 89.429333 0 0 1-19.569778-16.042667l-0.682667-0.682667v-0.682666a14.222222 14.222222 0 0 1-1.934222-2.275556 124.359111 124.359111 0 0 1-10.24-13.084444 113.777778 113.777778 0 0 1-11.377778-19.911112 95.459556 95.459556 0 0 1-7.168-22.755555 134.371556 134.371556 0 0 1 0-48.014222 107.52 107.52 0 0 1 7.850667-23.779556A115.484444 115.484444 0 0 1 482.417778 247.466667l3.640889-6.257778a86.129778 86.129778 0 0 1 15.928889-19.569778l0.682666-0.682667h0.682667a14.222222 14.222222 0 0 1 2.275555-1.934222 129.934222 129.934222 0 0 1 13.084445-10.24 121.969778 121.969778 0 0 1 19.911111-11.377778 95.459556 95.459556 0 0 1 22.755556-7.168 138.467556 138.467556 0 0 1 24.007111-2.161777 131.072 131.072 0 0 1 25.031111 2.503111 104.903111 104.903111 0 0 1 23.665778 7.850666 107.52 107.52 0 0 1 12.856888 6.940445l6.257778 3.527111a89.429333 89.429333 0 0 1 19.569778 16.042667l0.682667 0.682666v0.682667a14.222222 14.222222 0 0 1 1.934222 2.275556 106.040889 106.040889 0 0 1 10.24 13.084444 113.777778 113.777778 0 0 1 11.377778 19.911111 93.980444 93.980444 0 0 1 7.168 22.755556 134.371556 134.371556 0 0 1 0 48.014222A20.138667 20.138667 0 0 1 684.600889 349.866667h-3.754667a20.252444 20.252444 0 0 1-15.928889-23.893334 68.266667 68.266667 0 0 0 1.934223-16.156444 71.338667 71.338667 0 0 0-1.820445-15.928889 77.710222 77.710222 0 0 0-4.892444-14.791111l-1.365334-2.844445a43.918222 43.918222 0 0 0-6.257777-10.353777h-0.568889v-0.682667a40.618667 40.618667 0 0 0-4.323556-5.575111l-2.161778-2.616889a24.120889 24.120889 0 0 1-2.275555-2.730667l-1.592889-1.820444a46.421333 46.421333 0 0 0-8.647111-7.168l-0.910222-0.682667-15.132445-8.533333a68.266667 68.266667 0 0 0-14.108444-4.778667 77.824 77.824 0 0 1-8.647111-0.682666 70.314667 70.314667 0 0 0-8.078223-0.682667 65.536 65.536 0 0 0-15.928889 1.934222 64.512 64.512 0 0 0-14.791111 4.892445l-2.844444 1.251555a43.918222 43.918222 0 0 0-10.353778 6.257778v0.568889h-0.682667a40.618667 40.618667 0 0 0-5.575111 4.323555l-2.616889 2.161778a24.120889 24.120889 0 0 1-2.730666 2.275556l-1.820445 1.592889a46.421333 46.421333 0 0 0-7.168 8.647111l-0.682666 0.910222-8.874667 14.336a69.518222 69.518222 0 0 0-4.892444 14.677333 68.266667 68.266667 0 0 0 0 31.857778c1.251556 4.437333 3.185778 9.557333 5.006222 14.449778l1.365333 2.730666a43.690667 43.690667 0 0 0 6.144 10.353778v1.251556a40.618667 40.618667 0 0 0 4.323556 5.575111l2.161777 2.616889a24.120889 24.120889 0 0 1 2.275556 2.730666 14.449778 14.449778 0 0 0 1.592889 1.820445 46.421333 46.421333 0 0 0 8.647111 7.168l0.910222 0.682667 15.473778 8.988444a68.835556 68.835556 0 0 0 13.880889 4.437333 97.507556 97.507556 0 0 0 16.384 1.365334 91.022222 91.022222 0 0 0 16.042667-1.365334 66.332444 66.332444 0 0 0 14.791111-4.892444 19.456 19.456 0 0 1 8.419555-1.934222 20.138667 20.138667 0 0 1 5.233778 0.796444l-28.444444-28.444444a46.876444 46.876444 0 1 1 27.989333-27.989334l152.234667 151.779556a19.797333 19.797333 0 1 1-27.989334 27.989333L643.527111 395.377778a20.707556 20.707556 0 0 1-0.341333 13.198222z m-57.457778-91.022222a6.257778 6.257778 0 0 0 3.640889-1.251556 6.257778 6.257778 0 0 1 3.413333-3.413333 6.940444 6.940444 0 0 0 0.682667-2.389333 8.078222 8.078222 0 0 0-7.736889-7.054223 7.054222 7.054222 0 0 0 0 14.108445z"  horiz-adv-x="1024" />

    
    <glyph glyph-name="hwzbzb_shouqi" unicode="&#58914;" d="M512.462507 640a39.253333 39.253333 0 0 1-28.16-11.093333L11.55584 190.293333a34.133333 34.133333 0 0 1 0-51.2 41.813333 41.813333 0 0 1 56.32 0L512.462507 554.666667l444.586666-413.013334a41.813333 41.813333 0 0 1 56.32 0 34.133333 34.133333 0 0 1 0 51.2L540.622507 628.906667A39.253333 39.253333 0 0 1 512.462507 640z"  horiz-adv-x="1024" />

    
    <glyph glyph-name="hwzbzb_gengduo" unicode="&#58915;" d="M512.462507 128a39.253333 39.253333 0 0 0-28.16 11.093333L11.55584 577.706667a34.133333 34.133333 0 0 0 0 51.2 41.813333 41.813333 0 0 0 56.32 0L512.462507 213.333333l444.586666 413.013334a41.813333 41.813333 0 0 0 56.32 0 34.133333 34.133333 0 0 0 0-51.2L540.622507 139.093333A39.253333 39.253333 0 0 0 512.462507 128z"  horiz-adv-x="1024" />

    
    <glyph glyph-name="qushitu_shuju" unicode="&#58908;" d="M243.63796 68.301499a33.705248 33.705248 0 0 0-33.705248-33.705248H113.510103a33.2786 33.2786 0 0 0-33.278599 33.705248v264.095553a33.2786 33.2786 0 0 0 33.278599 33.278599h96.422609a33.705248 33.705248 0 0 0 33.705248-33.278599z m0 0M477.014806 68.301499a33.705248 33.705248 0 0 0-33.705249-33.705248H346.886949a33.2786 33.2786 0 0 0-33.2786 33.705248V491.537021a33.2786 33.2786 0 0 0 33.2786 33.705248h96.422608a33.705248 33.705248 0 0 0 33.705249-33.705248z m0 0M710.391651 68.301499a33.2786 33.2786 0 0 0-33.2786-33.705248h-96.422608a33.705248 33.705248 0 0 0-33.705249 33.705248v639.973068a33.705248 33.705248 0 0 0 33.705249 33.705248h96.422608a33.2786 33.2786 0 0 0 33.2786-33.705248z m0 0M943.768496 68.301499a33.2786 33.2786 0 0 0-33.278599-33.705248h-96.422609a33.705248 33.705248 0 0 0-33.705248 33.705248v347.7187a34.131897 34.131897 0 0 0 33.705248 33.705248h96.422609a33.705248 33.705248 0 0 0 33.278599-33.705248z m0 0M981.313583-94.25166a33.705248 33.705248 0 0 0-33.705248-33.705248H78.09826a33.705248 33.705248 0 0 0-35.411843 33.705248v71.250335a33.2786 33.2786 0 0 0 33.705248 33.278599h869.510075a33.2786 33.2786 0 0 0 33.705248-33.278599v-71.250335z m0 0M362.672951 609.292066A30.718707 30.718707 0 1 1 393.391658 640.010773a30.718707 30.718707 0 0 1-30.718707-30.718707z m0 0M592.636607 865.281293a30.718707 30.718707 0 0 1 30.718707-30.718708 31.145356 31.145356 0 0 1 31.145356 30.718708 31.145356 31.145356 0 0 1-31.145356 30.718707 30.718707 30.718707 0 0 1-30.718707-30.718707z m0 0M821.320316 544.441461a30.718707 30.718707 0 1 1 31.998653 30.718708 30.718707 30.718707 0 0 1-30.718707-30.718708z m0 0M149.348595 454.845232l239.776576 160.419916L622.928665 890.453567l240.203225-337.90578-20.905787-14.506056-221.004033 311.453559L406.191119 597.345902l-242.763117-163.406457z m0 0"  horiz-adv-x="1024" />

    
    <glyph glyph-name="qushitu_tongji" unicode="&#58909;" d="M970.484908 381.498371A484.899023 484.899023 0 1 0 486.002823 866.397394v-484.899023z m0 0M998.002823 441.954397A453.211726 453.211726 0 0 1 544.791097 895.166124v-453.211727z m0 0"  horiz-adv-x="1024" />

    
    <glyph glyph-name="huanyihuan" unicode="&#58904;" d="M230.4 665.6a397.653333 397.653333 0 0 0 590.506667-25.6L682.666667 497.493333h341.333333v341.333334L901.12 716.8A512 512 0 0 1 12.8 497.493333h116.906667a395.093333 395.093333 0 0 0 100.693333 170.666667z m563.2-563.2A397.653333 397.653333 0 0 0 203.093333 128L341.333333 270.506667H0v-341.333334L122.88 51.2a512 512 0 0 1 888.32 219.306667h-117.76a393.386667 393.386667 0 0 0-99.84-170.666667z m0 0"  horiz-adv-x="1024" />

    
    <glyph glyph-name="liulan" unicode="&#58906;" d="M576.021151-128c-231.848513 0-432.015863 154.085658-529.219432 245.529016a149.045473 149.045473 0 0 0 0 216.007931C144.005288 425.700331 344.172638 579.785989 576.021151 579.785989s432.015863-153.365631 528.499406-244.088963a149.765499 149.765499 0 0 0 0-216.007931C1008.037014 25.365631 807.149638-128 576.021151-128z m0 612.022473c-198.727297 0-375.853801-137.52505-463.697027-216.007932a51.841904 51.841904 0 0 1-16.560608-38.161401 50.401851 50.401851 0 0 1 16.560608-38.161401c87.843225-85.683146 264.969729-223.208196 463.697027-223.208196s375.133774 136.805023 462.977 216.007931a55.442036 55.442036 0 0 1 17.280634 39.601454 54.722009 54.722009 0 0 1-17.280634 39.601455c-87.843225 81.362988-264.249703 216.007932-462.977 216.007931z m3.600132 192.247059a48.241771 48.241771 0 0 0-47.521745 48.241771V841.875613a48.241771 48.241771 0 1 0 95.763516 0v-117.36431a48.241771 48.241771 0 0 0-48.241771-48.241771z m381.614012-96.483543a46.801719 46.801719 0 0 0-43.921612 29.521084 48.961798 48.961798 0 0 0 10.08037 52.56193L1008.037014 741.071911a47.521745 47.521745 0 1 0 67.682485-67.682485l-80.642961-79.922935a50.401851 50.401851 0 0 0-33.841243-13.680502z m-763.228024 0a50.401851 50.401851 0 0 0-33.841243 13.680502L81.362988 676.989558A47.521745 47.521745 0 0 0 149.045473 741.071911l82.80304-79.202908a48.961798 48.961798 0 0 0 10.800397-52.56193 48.961798 48.961798 0 0 0-44.641639-29.521084z m0 0M596.181891 80.807667a199.447323 199.447323 0 0 0-198.727297 198.727297h95.763516a102.963781 102.963781 0 0 1 205.927562 0H792.029082a199.447323 199.447323 0 0 0-198.727297-198.727297z m0 0"  horiz-adv-x="1168" />

    
    <glyph glyph-name="laba" unicode="&#58907;" d="M521.102222 896L266.24 640H85.333333A85.333333 85.333333 0 0 1 0 554.666667v-341.333334a85.333333 85.333333 0 0 1 85.333333-84.764444h180.906667L521.102222-128a85.333333 85.333333 0 0 1 84.764445 85.333333v853.333334A85.333333 85.333333 0 0 1 521.102222 896z m0-934.684444l-223.004444 246.897777H85.333333v341.333334h212.764445L521.102222 795.306667v-833.991111z m0 0M1026.275556 347.022222c8.533333 0 15.36 16.497778 15.36 37.546667s-6.826667 36.977778-15.36 36.977778H919.324444c-8.533333 0-15.36-16.497778-15.36-36.977778s6.826667-37.546667 15.36-37.546667z m0 0M1037.653333 830.008889c7.395556 3.982222 5.12 21.617778-5.12 39.822222S1007.502222 896 1000.675556 896L907.946667 839.111111c-6.826667-4.551111-4.551111-22.186667 5.688889-39.822222s24.462222-29.013333 31.857777-25.031111z m0 0M1037.653333-60.871111c7.395556-4.551111 5.12-22.186667-5.12-40.391111s-25.031111-28.444444-31.857777-24.462222L907.946667-71.111111c-6.826667 3.982222-4.551111 21.617778 5.688889 39.822222s24.462222 29.013333 31.857777 24.462222z m0 0M666.737778 192.853333c-7.964444 20.48-5.688889 39.822222 14.791111 47.786667a146.773333 146.773333 0 0 1 82.488889 128 149.617778 149.617778 0 0 1-81.351111 155.875556 35.84 35.84 0 0 0-13.653334 50.631111 35.271111 35.271111 0 0 0 50.062223 14.222222 232.106667 232.106667 0 0 0 122.311111-227.555556 223.004444 223.004444 0 0 0-127.431111-182.613333 33.564444 33.564444 0 0 0-47.217778 14.791111z m0 0"  horiz-adv-x="1042" />

    
    <glyph glyph-name="zc_guanbi" unicode="&#58903;" d="M1024-14.079195L625.598994 383.67819l398.401006 398.401005L910.079195 896 512.32181 497.598994 113.920805 896 0 782.079195l398.401006-398.401005L0-14.079195l113.920805-113.920805 398.401005 398.401006 397.757385-398.401006 113.920805 113.920805z"  horiz-adv-x="1024" />

    
    <glyph glyph-name="jiantou_xia" unicode="&#58899;" d="M853.333333 384l-341.333333-512-341.333333 512h170.666666V896h341.333334v-512h170.666666z"  horiz-adv-x="1024" />

    
    <glyph glyph-name="jiantou_shang" unicode="&#58897;" d="M853.333333 384H170.666667l341.333333 512 341.333333-512zM341.333333 469.333333h341.333334v-597.333333H341.333333z"  horiz-adv-x="1024" />

    
    <glyph glyph-name="pdss_you" unicode="&#58893;" d="M384 34.133333c8.533333 0 17.066667 4.266667 21.333333 8.533334l256 298.666666c8.533333 8.533333 8.533333 25.6 0 34.133334l-256 341.333333c-8.533333 17.066667-25.6 17.066667-38.4 8.533333-12.8-8.533333-12.8-25.6-4.266666-38.4l243.2-324.266666-243.2-281.6c-8.533333-12.8-8.533333-29.866667 4.266666-38.4 4.266667-4.266667 8.533333-8.533333 17.066667-8.533334z"  horiz-adv-x="1024" />

    
    <glyph glyph-name="pdss_gouxuan" unicode="&#58892;" d="M849.066667 631.466667l-430.933334-469.333334-238.933333 260.266667c-12.8 12.8-29.866667 12.8-38.4 0-12.8-12.8-12.8-29.866667 0-42.666667l238.933333-260.266666 17.066667-21.333334c12.8-12.8 29.866667-12.8 42.666667 0l17.066666 21.333334 430.933334 469.333333c12.8 12.8 12.8 29.866667 0 42.666667-12.8 12.8-29.866667 12.8-38.4 0zM1024-128H0V896h1024v-1024zM42.666667-85.333333h938.666666V853.333333H42.666667v-938.666666z"  horiz-adv-x="1024" />

    
    <glyph glyph-name="pdss_zuo" unicode="&#58891;" d="M640 34.133333c-8.533333 0-17.066667 4.266667-21.333333 8.533334l-256 298.666666c-8.533333 8.533333-8.533333 25.6 0 34.133334l256 341.333333c8.533333 12.8 25.6 12.8 38.4 4.266667 12.8-8.533333 12.8-25.6 4.266666-38.4l-243.2-324.266667 243.2-281.6c8.533333-12.8 8.533333-29.866667-4.266666-38.4-4.266667 0-8.533333-4.266667-17.066667-4.266667z"  horiz-adv-x="1024" />

    
    <glyph glyph-name="pdss_xiala" unicode="&#58889;" d="M512 896a512 512 0 1 1 512-512A512 512 0 0 1 512 896z m0-964.608A452.608 452.608 0 1 0 964.608 384 453.12 453.12 0 0 0 512-68.608zM501.248 266.752a33.792 33.792 0 0 0-19.456 6.144l-230.4 168.448a33.28 33.28 0 0 0 38.912 53.76l211.968-153.6 232.448 153.6a33.28 33.28 0 0 0 36.864-55.808l-251.904-167.936a30.208 30.208 0 0 0-18.432-4.608z"  horiz-adv-x="1024" />

    
    <glyph glyph-name="pdss_xiala-hover" unicode="&#58890;" d="M512 896a512 512 0 1 1 512-512A512 512 0 0 1 512 896z m0-964.608A452.608 452.608 0 1 0 964.608 384 453.12 453.12 0 0 0 512-68.608zM501.248 501.76a34.304 34.304 0 0 1-19.456-6.656l-230.4-168.448a33.28 33.28 0 0 1 38.912-53.76l211.968 153.6 232.448-153.6a33.28 33.28 0 1 1 36.864 55.296l-251.904 167.936a33.792 33.792 0 0 1-18.432 5.632z"  horiz-adv-x="1024" />

    
    <glyph glyph-name="pdss_yiwen" unicode="&#58886;" d="M512 888.685714C234.057143 888.685714 7.314286 661.942857 7.314286 384s226.742857-504.685714 504.685714-504.685714 504.685714 226.742857 504.685714 504.685714S789.942857 888.685714 512 888.685714z m0-950.857143C263.314286-62.171429 65.828571 135.314286 65.828571 384 65.828571 632.685714 263.314286 830.171429 512 830.171429c248.685714 0 446.171429-197.485714 446.171429-446.171429 0-248.685714-197.485714-446.171429-446.171429-446.171429zM512 215.771429c-29.257143 0-58.514286-21.942857-58.514286-58.514286s29.257143-58.514286 58.514286-58.514286 58.514286 21.942857 58.514286 58.514286-29.257143 58.514286-58.514286 58.514286zM526.628571 669.257143c-65.828571 0-117.028571-21.942857-168.228571-80.457143-7.314286-7.314286-14.628571-14.628571-14.628571-29.257143 0-21.942857 14.628571-36.571429 36.571428-36.571428 7.314286 0 21.942857 7.314286 29.257143 14.628571 36.571429 36.571429 73.142857 58.514286 109.714286 58.514286 51.2 0 80.457143-29.257143 80.457143-80.457143 0-29.257143-29.257143-58.514286-58.514286-87.771429-43.885714-36.571429-87.771429-80.457143-73.142857-160.914285 0-14.628571 21.942857-29.257143 36.571428-29.257143H512c14.628571 0 29.257143 14.628571 29.257143 36.571428-7.314286 58.514286 29.257143 95.085714 65.828571 124.342857 36.571429 36.571429 73.142857 65.828571 73.142857 124.342858 0 87.771429-58.514286 146.285714-153.6 146.285714z"  horiz-adv-x="1024" />

    
    <glyph glyph-name="pdss_shoucang" unicode="&#58887;" d="M302.016222-114.955475c-44.789167-25.593809-102.375238-12.796905-127.969048 31.992262-12.796905 19.195357-19.195357 44.789167-12.796905 70.382976l57.586072 243.14119c0 6.398452 0 12.796905-6.398453 12.796905L33.281222 409.71762C-5.109492 448.108334-11.507945 505.694405 20.484317 544.085119c19.195357 19.195357 38.390714 31.992262 63.984524 31.992262L321.211579 595.272738c6.398452 0 12.796905 6.398452 12.796904 6.398453L423.586817 832.015476C449.180626 883.203095 500.368245 908.796905 545.157412 889.601548c19.195357-12.796905 38.390714-25.593809 51.187619-51.187619l89.578333-230.344286c0-6.398452 6.398452-6.398452 12.796905-6.398452l243.14119-25.59381c51.187619-6.398452 89.578333-51.187619 83.179881-102.375238 0-25.593809-12.796905-44.789167-31.992262-63.984523l-185.555119-159.96131c-6.398452-6.398452-6.398452-12.796905-6.398452-12.796905l57.586071-243.14119c12.796905-51.187619-19.195357-102.375238-70.382976-115.172143-25.593809-6.398452-51.187619 0-70.382976 12.796905l-204.750476 127.969048h-12.796905l-198.352023-134.3675z m255.938095 198.352023l204.750476-127.969047h12.796904c6.398452 0 12.796905 12.796905 12.796905 19.195357l-57.586071 243.14119c-6.398452 31.992262 6.398452 70.382976 31.992262 95.976786l185.555118 159.961309s6.398452 6.398452 6.398453 12.796905-6.398452 19.195357-12.796905 19.195357L705.118721 524.889762c-31.992262 0-63.984524 25.593809-76.781428 57.586072L525.962055 806.421667c0 6.398452-6.398452 6.398452-6.398453 6.398452-6.398452 0-12.796905 0-19.195357-6.398452L410.789912 576.077381c-19.195357-31.992262-44.789167-57.586071-83.179881-57.586071l-236.742738-19.195357c-6.398452 0-6.398452 0-6.398452-6.398453-6.398452-6.398452-6.398452-19.195357 0-25.593809l185.555119-159.961309c25.593809-25.593809 38.390714-57.586071 31.992262-95.976786l-57.586072-243.14119v-12.796905c6.398452-6.398452 12.796905-6.398452 19.195357-6.398452l204.750476 127.969047c25.593809 25.593809 63.984524 25.593809 89.578334 6.398452z m0 0"  horiz-adv-x="1025" />

    
    <glyph glyph-name="pdss_shoucang1" unicode="&#58888;" d="M993.240602 409.573793c19.199064 19.199064 31.99844 38.398128 31.99844 63.99688 6.399688 51.197504-31.99844 95.99532-83.195944 102.395009L705.254642 595.164746c-6.399688 0-12.799376 6.399688-12.799376 6.399688L596.459945 838.35289C590.060257 857.551954 570.861193 876.751018 545.262441 889.550394 500.464625 908.749458 449.267121 883.150706 430.068057 838.35289L334.072737 607.964122c0-6.399688-6.399688-6.399688-12.799376-6.399688L84.484904 575.965682c-25.598752 0-44.797816-12.799376-63.99688-31.99844-31.99844-38.398128-25.598752-95.99532 12.799376-134.393449l185.590953-159.9922c6.399688-6.399688 6.399688-12.799376 6.399688-12.799376l-57.597193-243.188145c-6.399688-25.598752 0-51.197504 12.799376-70.396568 25.598752-44.797816 83.195944-57.597192 127.993761-31.99844l204.790016 127.99376h12.799376l204.790017-127.99376c19.199064-12.799376 44.797816-19.199064 70.396568-12.799376 51.197504 12.799376 76.796256 63.99688 70.396568 115.194384l-57.597192 243.188145c0 6.399688 0 12.799376 6.399688 12.799376l172.791576 159.9922z"  horiz-adv-x="1025" />

    


  </font>
</defs>
</svg>
